<svg width="120" height="31" viewBox="0 0 120 31" fill="none" xmlns="http://www.w3.org/2000/svg">
<path d="M50.0227 24.2557C48.1795 24.2557 46.7715 23.6072 45.7987 22.3101V23.4109C45.7987 23.5816 45.7389 23.7267 45.6195 23.8461C45.5171 23.9485 45.3805 23.9997 45.2099 23.9997H44.1347C43.9641 23.9997 43.8189 23.9485 43.6995 23.8461C43.5971 23.7267 43.5459 23.5816 43.5459 23.4109V6.41253C43.5459 6.22479 43.5971 6.07973 43.6995 5.97733C43.8189 5.87493 43.9641 5.82373 44.1347 5.82373H45.2867C45.4573 5.82373 45.5939 5.88347 45.6963 6.00293C45.8157 6.10533 45.8755 6.24187 45.8755 6.41253V12.3261C46.8313 11.0632 48.2137 10.4317 50.0227 10.4317C51.8147 10.4317 53.1545 11.0205 54.0419 12.1981C54.9465 13.3587 55.4243 14.8179 55.4755 16.5757C55.4925 16.7635 55.5011 17.0195 55.5011 17.3437C55.5011 17.668 55.4925 17.924 55.4755 18.1117C55.4243 19.8696 54.9465 21.3373 54.0419 22.5149C53.1545 23.6755 51.8147 24.2557 50.0227 24.2557ZM49.5363 22.2589C50.7651 22.2589 51.6611 21.8749 52.2243 21.1069C52.7875 20.3389 53.0947 19.332 53.1459 18.0861C53.1629 17.9155 53.1715 17.668 53.1715 17.3437C53.1715 14.0669 51.9597 12.4285 49.5363 12.4285C48.3757 12.4285 47.4797 12.8125 46.8483 13.5805C46.2339 14.3315 45.9097 15.2275 45.8755 16.2685C45.8585 16.4563 45.8499 16.7891 45.8499 17.2669C45.8499 17.7277 45.8585 18.052 45.8755 18.2397C45.9097 19.332 46.2253 20.2792 46.8227 21.0813C47.4371 21.8664 48.3417 22.2589 49.5363 22.2589ZM64.1219 24.2557C62.2445 24.2557 60.7939 23.7267 59.7699 22.6685C58.7629 21.6104 58.2253 20.2024 58.1571 18.4445L58.1315 17.3437L58.1571 16.2429C58.2253 14.4851 58.7715 13.0771 59.7955 12.0189C60.8365 10.9608 62.2787 10.4317 64.1219 10.4317C65.9651 10.4317 67.3987 10.9608 68.4227 12.0189C69.4637 13.0771 70.0185 14.4851 70.0867 16.2429C70.1209 16.6184 70.1379 16.9853 70.1379 17.3437C70.1379 17.7021 70.1209 18.0691 70.0867 18.4445C70.0185 20.2024 69.4723 21.6104 68.4483 22.6685C67.4413 23.7267 65.9993 24.2557 64.1219 24.2557ZM64.1219 22.3357C65.2141 22.3357 66.0761 21.9944 66.7075 21.3117C67.3561 20.612 67.7059 19.6136 67.7571 18.3165C67.7741 18.1459 67.7827 17.8216 67.7827 17.3437C67.7827 16.8659 67.7741 16.5416 67.7571 16.3709C67.7059 15.0739 67.3561 14.084 66.7075 13.4013C66.0761 12.7016 65.2141 12.3517 64.1219 12.3517C63.0297 12.3517 62.1593 12.7016 61.5107 13.4013C60.8793 14.084 60.5379 15.0739 60.4867 16.3709L60.4611 17.3437L60.4867 18.3165C60.5379 19.6136 60.8793 20.612 61.5107 21.3117C62.1593 21.9944 63.0297 22.3357 64.1219 22.3357ZM78.7719 24.2557C76.8945 24.2557 75.4439 23.7267 74.4199 22.6685C73.4129 21.6104 72.8753 20.2024 72.8071 18.4445L72.7815 17.3437L72.8071 16.2429C72.8753 14.4851 73.4215 13.0771 74.4455 12.0189C75.4865 10.9608 76.9287 10.4317 78.7719 10.4317C80.6155 10.4317 82.0491 10.9608 83.0731 12.0189C84.1139 13.0771 84.6683 14.4851 84.7371 16.2429C84.7707 16.6184 84.7883 16.9853 84.7883 17.3437C84.7883 17.7021 84.7707 18.0691 84.7371 18.4445C84.6683 20.2024 84.1227 21.6104 83.0987 22.6685C82.0915 23.7267 80.6491 24.2557 78.7719 24.2557ZM78.7719 22.3357C79.8641 22.3357 80.7259 21.9944 81.3579 21.3117C82.0059 20.612 82.3563 19.6136 82.4075 18.3165C82.4243 18.1459 82.4331 17.8216 82.4331 17.3437C82.4331 16.8659 82.4243 16.5416 82.4075 16.3709C82.3563 15.0739 82.0059 14.084 81.3579 13.4013C80.7259 12.7016 79.8641 12.3517 78.7719 12.3517C77.6797 12.3517 76.8093 12.7016 76.1607 13.4013C75.5293 14.084 75.1879 15.0739 75.1367 16.3709L75.1111 17.3437L75.1367 18.3165C75.1879 19.6136 75.5293 20.612 76.1607 21.3117C76.8093 21.9944 77.6797 22.3357 78.7719 22.3357ZM88.6347 23.9997C88.4643 23.9997 88.3187 23.9485 88.1995 23.8461C88.0971 23.7267 88.0459 23.5816 88.0459 23.4109V6.41253C88.0459 6.22479 88.0971 6.07973 88.1995 5.97733C88.3187 5.87493 88.4643 5.82373 88.6347 5.82373H89.7355C89.9059 5.82373 90.0427 5.88347 90.1451 6.00293C90.2643 6.10533 90.3243 6.24187 90.3243 6.41253V15.3469L95.4443 11.1229C95.7003 10.9352 95.8795 10.8157 95.9819 10.7645C96.0843 10.7133 96.2467 10.6877 96.4683 10.6877H97.7483C97.9019 10.6877 98.0211 10.7389 98.1067 10.8413C98.2091 10.9267 98.2603 11.0547 98.2603 11.2253C98.2603 11.3789 98.1667 11.5411 97.9787 11.7117L91.9883 16.6269L98.6187 22.9757C98.8067 23.1635 98.9003 23.3256 98.9003 23.4621C98.9003 23.6157 98.8491 23.7437 98.7467 23.8461C98.6611 23.9485 98.5419 23.9997 98.3883 23.9997H97.1339C96.8779 23.9997 96.6899 23.9741 96.5707 23.9229C96.4683 23.8717 96.3147 23.7523 96.1099 23.5645L90.3243 18.0861V23.4109C90.3243 23.5816 90.2643 23.7267 90.1451 23.8461C90.0427 23.9485 89.9059 23.9997 89.7355 23.9997H88.6347ZM101.759 23.9997C101.589 23.9997 101.444 23.9485 101.324 23.8461C101.222 23.7267 101.171 23.5816 101.171 23.4109V6.41253C101.171 6.22479 101.222 6.07973 101.324 5.97733C101.444 5.87493 101.589 5.82373 101.759 5.82373H102.886C103.057 5.82373 103.193 5.88347 103.296 6.00293C103.416 6.10533 103.475 6.24187 103.475 6.41253V23.4109C103.475 23.5816 103.416 23.7267 103.296 23.8461C103.193 23.9485 103.057 23.9997 102.886 23.9997H101.759ZM109.65 28.8637C109.496 28.8637 109.368 28.8125 109.266 28.7101C109.163 28.6077 109.112 28.4883 109.112 28.3517C109.112 28.3005 109.155 28.1469 109.24 27.8909L111.237 23.2061L106.348 11.6605C106.245 11.4557 106.194 11.3107 106.194 11.2253C106.211 11.0717 106.271 10.9437 106.373 10.8413C106.476 10.7389 106.595 10.6877 106.732 10.6877H107.909C108.182 10.6877 108.387 10.8243 108.524 11.0973L112.466 20.5181L116.511 11.0973C116.647 10.8243 116.852 10.6877 117.125 10.6877H118.277C118.414 10.6877 118.533 10.7389 118.636 10.8413C118.738 10.9437 118.789 11.0632 118.789 11.1997C118.789 11.3192 118.747 11.4728 118.661 11.6605L111.416 28.4541C111.331 28.5907 111.237 28.6931 111.135 28.7613C111.049 28.8296 110.93 28.8637 110.776 28.8637H109.65Z" fill="#3D4851"/>
<path d="M0 2.5498L13.8857 6.14075V28.5842L0 24.8436V2.5498Z" fill="url(#paint0_linear)"/>
<path d="M15.0615 6.06566L28.8003 2.3999V24.8433L15.0615 28.6587V6.06566Z" fill="url(#paint1_linear)"/>
<defs>
<linearGradient id="paint0_linear" x1="6.94286" y1="2.5498" x2="6.94286" y2="28.5842" gradientUnits="userSpaceOnUse">
<stop stop-color="#09C6F9"/>
<stop offset="0.0001" stop-color="#09C6F9"/>
<stop offset="1" stop-color="#045DE9"/>
</linearGradient>
<linearGradient id="paint1_linear" x1="21.931" y1="2.3999" x2="21.931" y2="28.6587" gradientUnits="userSpaceOnUse">
<stop stop-color="#09C6F9"/>
<stop offset="0.0001" stop-color="#09C6F9"/>
<stop offset="1" stop-color="#045DE9"/>
</linearGradient>
</defs>
</svg>
